<svg width="40" height="40" viewBox="0 0 40 40" fill="none" xmlns="http://www.w3.org/2000/svg">
<path d="M8.73667 22.9483L0 15.8333L20 0L40 15.8333L31.2633 22.9483C29.2467 18.7483 24.9633 15.8333 20 15.8333C15.0383 15.8333 10.7533 18.7467 8.73667 22.9483ZM20 16.6667C16.9058 16.6667 13.9383 17.8958 11.7504 20.0838C9.5625 22.2717 8.33333 25.2391 8.33333 28.3333C8.33333 31.4275 9.5625 34.395 11.7504 36.5829C13.9383 38.7708 16.9058 40 20 40C23.0942 40 26.0617 38.7708 28.2496 36.5829C30.4375 34.395 31.6667 31.4275 31.6667 28.3333C31.6667 25.2391 30.4375 22.2717 28.2496 20.0838C26.0617 17.8958 23.0942 16.6667 20 16.6667Z" fill="white"/>
</svg>
